<svg xmlns="http://www.w3.org/2000/svg" viewBox="0 0 128 128"><path d="M64,40 C90,40 104,58 104,76 C104,96 88,112 64,112 C40,112 24,96 24,76 C24,58 38,40 64,40 Z" fill="#ffd6e0" stroke="#4a3f4d" stroke-width="3" stroke-linejoin="round" stroke-linecap="round"/><ellipse cx="42" cy="82" rx="8" ry="6" fill="#ff9fbd" opacity="0.6"/><ellipse cx="86" cy="82" rx="8" ry="6" fill="#ff9fbd" opacity="0.6"/><line x1="64" y1="40" x2="64" y2="26" stroke="#4a3f4d" stroke-width="3" stroke-linecap="round"/><path d="M64,30 C56,28 52,20 56,14 C62,18 64,24 64,30 Z" fill="#7cc49a" stroke="#4a3f4d" stroke-width="2" stroke-linejoin="round" stroke-linecap="round"/><path d="M64,30 C72,28 76,20 72,14 C66,18 64,24 64,30 Z" fill="#7cc49a" stroke="#4a3f4d" stroke-width="2" stroke-linejoin="round" stroke-linecap="round"/><path d="M44,68 L50,62 L56,68" stroke="#4a3f4d" stroke-width="3" fill="none" stroke-linecap="round" stroke-linejoin="round"/><path d="M72,68 L78,62 L84,68" stroke="#4a3f4d" stroke-width="3" fill="none" stroke-linecap="round" stroke-linejoin="round"/><path d="M46,84 Q64,106 82,84" stroke="#4a3f4d" stroke-width="3.5" fill="none" stroke-linecap="round"/><g><rect x="18" y="18" width="6" height="6" fill="#3b8fd9" transform="rotate(20 21 21)"/><circle cx="40" cy="10" r="4" fill="#d9577f"/><rect x="86" y="12" width="6" height="6" fill="#8a63d2" transform="rotate(-15 89 15)"/><circle cx="106" cy="22" r="4" fill="#23a47a"/><rect x="63" y="4" width="6" height="6" fill="#c9761f" transform="rotate(10 66 7)"/></g></svg>
