<svg xmlns="http://www.w3.org/2000/svg" viewBox="0 0 128 128"><path d="M64,40 C90,40 104,58 104,76 C104,96 88,112 64,112 C40,112 24,96 24,76 C24,58 38,40 64,40 Z" fill="#ffd6e0" stroke="#4a3f4d" stroke-width="3" stroke-linejoin="round" stroke-linecap="round"/><ellipse cx="42" cy="82" rx="8" ry="6" fill="#ff9fbd" opacity="0.6"/><ellipse cx="86" cy="82" rx="8" ry="6" fill="#ff9fbd" opacity="0.6"/><line x1="64" y1="40" x2="64" y2="26" stroke="#4a3f4d" stroke-width="3" stroke-linecap="round"/><path d="M64,30 C56,28 52,20 56,14 C62,18 64,24 64,30 Z" fill="#7cc49a" stroke="#4a3f4d" stroke-width="2" stroke-linejoin="round" stroke-linecap="round"/><path d="M64,30 C72,28 76,20 72,14 C66,18 64,24 64,30 Z" fill="#7cc49a" stroke="#4a3f4d" stroke-width="2" stroke-linejoin="round" stroke-linecap="round"/><circle cx="50" cy="68" r="4" fill="#4a3f4d"/><circle cx="78" cy="68" r="4" fill="#4a3f4d"/><path d="M48,86 Q64,102 80,86" stroke="#4a3f4d" stroke-width="3" fill="none" stroke-linecap="round"/><path d="M28,80 Q10,70 14,48" stroke="#4a3f4d" stroke-width="4" fill="none" stroke-linecap="round"/><path d="M100,80 Q118,70 114,48" stroke="#4a3f4d" stroke-width="4" fill="none" stroke-linecap="round"/><path d="M22.0,16.0 L23.8,20.2 L28.0,22.0 L23.8,23.8 L22.0,28.0 L20.2,23.8 L16.0,22.0 L20.2,20.2 Z" fill="#ffd166" stroke="#4a3f4d" stroke-width="1.5" stroke-linejoin="round"/><path d="M64.0,6.0 L65.8,10.2 L70.0,12.0 L65.8,13.8 L64.0,18.0 L62.2,13.8 L58.0,12.0 L62.2,10.2 Z" fill="#ffd166" stroke="#4a3f4d" stroke-width="1.5" stroke-linejoin="round"/><path d="M106.0,16.0 L107.8,20.2 L112.0,22.0 L107.8,23.8 L106.0,28.0 L104.2,23.8 L100.0,22.0 L104.2,20.2 Z" fill="#ffd166" stroke="#4a3f4d" stroke-width="1.5" stroke-linejoin="round"/></svg>
